<svg width="431" height="197" viewBox="0 0 431 197" fill="none" xmlns="http://www.w3.org/2000/svg">
<path d="M185.776 49.5409H161.006V74.3113H185.741L185.776 74.2766V99.0817H210.547V74.3113H210.487L210.547 74.2519V49.5409H210.512L210.547 49.5062V24.7704H210.509L210.547 24.7333V0H160.981L136.235 24.7457V24.7704H136.211L111.465 49.5161V98.9455L185.776 24.6342V49.5409ZM136.235 49.5409H136.156L136.235 49.4616V49.5409ZM161.006 24.7704H160.926L161.006 24.6912V24.7704Z" fill="#CCCCCC"/>
<path d="M431.002 0H381.436L356.69 24.7457V24.7704H356.666L331.92 49.5161V98.9455L406.231 24.6342V49.5409H381.461V74.3113H406.197L406.231 74.2766V99.0817H431.002V74.3113H430.942L431.002 74.2519V49.5409H430.967L431.002 49.5062V24.7704H430.964L431.002 24.7333V0ZM356.69 49.5409H356.611L356.69 49.4616V49.5409ZM381.461 24.7704H381.382L381.461 24.6912V24.7704Z" fill="#CCCCCC"/>
<path d="M99.0817 74.3113H74.3361L74.3113 74.3361V74.3113H49.6201L49.5409 74.3906V74.3113H24.9067L24.7704 74.4475V74.3113H24.9067L49.5409 49.6771V49.5409H49.6771L74.3113 24.9067V24.7704H74.4475L99.0817 0.136237V0H74.3484L74.3113 0.0371557V0H49.5755L0 49.5755V74.3113H0.0371557L0 74.3484V99.0817H99.0817V74.3113ZM49.5409 24.7704H49.578L49.5409 24.8076V24.7704ZM24.7704 49.5409H24.8076L24.7704 49.578V49.5409Z" fill="#CCCCCC"/>
<path d="M297.251 24.6342V24.7704H297.115L272.48 49.4046V49.5409H272.344L247.71 74.1751V74.3113H247.574L247.71 74.1751V49.5409H247.631L247.71 49.4616V24.7704H247.685L247.71 24.7457V0H222.939V99.0817H247.673L247.71 99.0446V99.0817H272.446L322.021 49.5062V24.7704H321.984L322.021 24.7333V0H321.885L297.251 24.6342ZM272.48 74.3113H272.443L272.48 74.2741V74.3113ZM297.251 49.5409H297.214L297.251 49.5037V49.5409Z" fill="#CCCCCC"/>
<path d="M103.744 160.413C101.839 158.989 99.9094 157.897 97.9525 157.129C95.9957 156.364 94.3385 155.786 92.9885 155.395L77.0785 150.59C74.9061 149.948 72.6297 149.121 70.2443 148.108C67.8589 147.094 65.8401 145.67 64.1855 143.837C62.5308 142.004 61.7035 139.557 61.7035 136.495C61.7035 133.434 62.558 130.942 64.2672 128.593C65.9764 126.245 68.3518 124.375 71.3937 122.988C74.4355 121.601 77.9677 120.905 81.9904 120.905C86.0132 120.905 89.9789 121.687 93.3626 123.253C96.7437 124.818 99.5031 127.018 101.638 129.847C103.774 132.676 105.091 135.96 105.589 139.696L110.073 138.841C109.431 134.32 107.838 130.379 105.294 127.016C102.751 123.652 99.4833 121.046 95.4978 119.193C91.5122 117.343 87.0089 116.416 81.9904 116.416C76.972 116.416 72.6817 117.281 68.9117 119.005C65.1391 120.731 62.1939 123.117 60.076 126.158C57.9582 129.203 56.9005 132.681 56.9005 136.597C56.9005 138.625 57.2126 140.53 57.8343 142.309C58.4561 144.09 59.4097 145.725 60.6903 147.221C61.971 148.717 63.6182 150.05 65.6296 151.226C67.6409 152.4 70.0338 153.399 72.8105 154.216L92.0299 159.982C93.2759 160.339 94.7002 160.837 96.3003 161.479C97.903 162.12 99.4412 162.982 100.918 164.067C102.394 165.152 103.613 166.569 104.574 168.31C105.535 170.054 106.015 172.227 106.015 174.822C106.015 178.275 105.089 181.292 103.239 183.871C101.388 186.452 98.7898 188.454 95.4433 189.878C92.0968 191.302 88.1831 192.013 83.6971 192.013C77.2543 192.013 71.7726 190.482 67.2545 187.421C62.7339 184.359 59.7813 180.195 58.3917 174.929L53.9082 175.784C54.8321 180.019 56.6577 183.685 59.38 186.782C62.1023 189.878 65.5379 192.273 69.6845 193.963C73.8311 195.652 78.5028 196.499 83.6996 196.499C87.757 196.499 91.423 195.991 94.6977 194.978C97.9723 193.965 100.784 192.514 103.132 190.626C105.48 188.741 107.279 186.462 108.525 183.792C109.77 181.122 110.392 178.132 110.392 174.822C110.392 171.3 109.761 168.372 108.497 166.041C107.234 163.71 105.649 161.833 103.746 160.409L103.744 160.413Z" fill="#CCCCCC"/>
<path d="M114.658 122.507H142.847V194.901H147.33V122.507H175.519V118.024H114.658V122.507Z" fill="#CCCCCC"/>
<path d="M233.414 121.546C228.306 118.13 221.925 116.421 214.274 116.421C206.622 116.421 200.241 118.13 195.133 121.546C190.026 124.962 186.191 129.678 183.628 135.695C181.064 141.709 179.783 148.632 179.783 156.462C179.783 164.292 181.064 171.216 183.628 177.23C186.191 183.244 190.026 187.961 195.133 191.379C200.241 194.795 206.619 196.504 214.274 196.504C221.928 196.504 228.306 194.795 233.414 191.379C238.521 187.963 242.356 183.247 244.92 177.23C247.483 171.216 248.764 164.292 248.764 156.462C248.764 148.632 247.483 141.709 244.92 135.695C242.356 129.681 238.521 124.964 233.414 121.546ZM240.647 174.879C238.44 180.217 235.138 184.408 230.743 187.453C226.347 190.497 220.858 192.018 214.274 192.018C207.69 192.018 202.181 190.497 197.749 187.453C193.318 184.408 189.999 180.22 187.791 174.879C185.584 169.541 184.517 163.401 184.589 156.46C184.661 149.519 185.797 143.371 188.005 138.013C190.212 132.658 193.494 128.467 197.856 125.44C202.215 122.415 207.687 120.902 214.274 120.902C220.86 120.902 226.347 122.415 230.743 125.44C235.138 128.464 238.44 132.656 240.647 138.013C242.854 143.371 243.956 149.519 243.956 156.46C243.956 163.401 242.851 169.539 240.647 174.879Z" fill="#CCCCCC"/>
<path d="M310.694 186.893L263.925 118.024H259.441V194.901H263.925V125.923L310.694 194.901H315.177V118.024H310.694V186.893Z" fill="#CCCCCC"/>
<path d="M330.121 194.901H377.103V190.415H334.607V158.704H370.698V154.218H334.607V122.507H377.103V118.024H330.121V194.901Z" fill="#CCCCCC"/>
</svg>
