<svg width="29" height="29" viewBox="0 0 29 29" fill="none" xmlns="http://www.w3.org/2000/svg">
<path d="M13.5938 0C14.1979 0 14.8021 0 15.4063 0C15.8911 0.0626823 16.3782 0.107995 16.8593 0.190313C19.6128 0.658542 22.0468 1.80872 24.1259 3.67333C26.6249 5.91404 28.1882 8.69018 28.7772 12.0018C28.8709 12.5289 28.9267 13.0628 29 13.5938V15.4063C28.9841 15.4788 28.9585 15.5513 28.9532 15.6245C28.7825 17.8614 28.1406 19.9556 26.973 21.8693C24.6719 25.6401 21.3475 27.9578 16.9967 28.778C16.4711 28.8769 15.9364 28.9275 15.4063 29H13.5938C13.2403 28.9562 12.8854 28.9184 12.5327 28.8678C9.64703 28.4547 7.09745 27.2985 4.91792 25.3629C2.40005 23.126 0.827708 20.3453 0.225807 17.0262C0.128385 16.49 0.0740104 15.9462 0 15.4063C0 14.8021 0 14.1979 0 13.5938C0.0438021 13.2396 0.0800521 12.8846 0.131406 12.5312C0.588307 9.37062 1.9205 6.63526 4.15818 4.35755C6.32865 2.14706 8.9462 0.760495 12.0025 0.222786C12.5297 0.129896 13.0628 0.0732552 13.5938 0ZM12.2533 15.0083V23.4001H15.7529V14.9977H18.1069C18.2081 14.0038 18.307 13.0349 18.4097 12.0342H15.7468C15.7468 11.4905 15.7468 10.9739 15.7468 10.4566C15.7468 9.69688 15.9621 9.48391 16.7256 9.48315C17.261 9.48315 17.7957 9.48315 18.3478 9.48315V6.62771C18.3047 6.61638 18.2692 6.59826 18.2338 6.59826C17.3283 6.59523 16.4197 6.54917 15.5165 6.60203C13.6761 6.70927 12.5742 7.66536 12.322 9.40461C12.2132 10.1553 12.2668 10.9294 12.2457 11.6929C12.2427 11.8016 12.2366 11.9096 12.2298 12.0524H10.6077V15.0083H12.2525H12.2533Z" fill="#CCCCCC"/>
</svg>
