<svg width="56" height="51" viewBox="0 0 56 51" fill="none" xmlns="http://www.w3.org/2000/svg">
<path d="M51.0966 24.9982L27.9993 49L4.902 24.9982C3.491 23.5107 2.41844 21.7356 1.75792 19.7947C1.0974 17.8538 0.864544 15.793 1.07533 13.7536C1.28611 11.7143 1.93554 9.74463 2.97907 7.97984C4.0226 6.21505 5.43554 4.69688 7.12094 3.52947C8.80634 2.36206 10.7243 1.57304 12.7433 1.21654C14.7623 0.860048 16.8345 0.944508 18.8178 1.46413C20.8011 1.98376 22.6485 2.92624 24.2333 4.22694C25.8181 5.52764 27.1028 7.15576 27.9993 8.99962C28.8957 7.15576 30.1804 5.52764 31.7652 4.22694C33.3501 2.92624 35.1975 1.98376 37.1808 1.46413C39.164 0.944508 41.2363 0.860048 43.2553 1.21654C45.2742 1.57304 47.1922 2.36206 48.8776 3.52947C50.563 4.69688 51.976 6.21505 53.0195 7.97984C54.063 9.74463 54.7125 11.7143 54.9233 13.7536C55.134 15.793 54.9012 17.8538 54.2407 19.7947C53.5801 21.7356 52.5076 23.5107 51.0966 24.9982Z" stroke="#171717" stroke-width="2" stroke-miterlimit="10" stroke-linecap="square"/>
</svg>
