<svg width="30" height="30" viewBox="0 0 30 30" fill="none" xmlns="http://www.w3.org/2000/svg">
<path fill-rule="evenodd" clip-rule="evenodd" d="M13.8099 0H15.6513C15.6747 0.00513277 15.6981 0.0111999 15.7216 0.0172712C15.7717 0.0302576 15.8218 0.043263 15.8728 0.047184C18.1664 0.218658 20.3139 0.876932 22.2703 2.08127C26.0726 4.42206 28.4151 7.78939 29.2357 12.1919C29.3037 12.5573 29.3497 12.927 29.3957 13.2968L29.3957 13.2969C29.417 13.468 29.4383 13.6392 29.4618 13.8099V15.6513C29.4579 15.6822 29.454 15.7132 29.45 15.7441C29.4465 15.7717 29.4429 15.7992 29.4393 15.8268L29.4393 15.8268C29.4224 15.9571 29.4055 16.0874 29.3916 16.2181C29.0763 19.132 28.0204 21.7455 26.1606 24.0115C23.8481 26.8299 20.8899 28.5797 17.2964 29.2334C16.9239 29.3011 16.548 29.3478 16.1721 29.3945C15.9985 29.416 15.825 29.4376 15.6519 29.4612H13.8105C13.6949 29.447 13.5792 29.4333 13.4635 29.4197L13.4635 29.4197C13.2194 29.3909 12.9754 29.3621 12.7322 29.3277C10.0145 28.941 7.57361 27.9059 5.45205 26.1612C2.6354 23.8458 0.881535 20.8916 0.229015 17.2975C0.161569 16.9262 0.114699 16.5514 0.0678268 16.1765C0.0459187 16.0013 0.0240102 15.8261 0 15.6513V13.8099C0.00820564 13.7427 0.0167769 13.6755 0.0253489 13.6082L0.0253499 13.6082C0.0408217 13.4869 0.0562956 13.3656 0.0696252 13.2437C0.410271 10.1233 1.59045 7.36416 3.67172 5.01186C5.96072 2.42537 8.81132 0.816513 12.2212 0.22211C12.5824 0.158956 12.9463 0.112318 13.3102 0.0656664L13.3103 0.0656644C13.4769 0.0443078 13.6435 0.0229483 13.8099 0ZM14.7302 6.2967C14.7307 6.27407 14.7312 6.25135 14.7312 6.22888C15.1649 6.24512 15.599 6.25638 16.0331 6.26764L16.0331 6.26764C16.9983 6.29267 17.9635 6.31769 18.9242 6.39746C21.2115 6.58735 22.844 8.24684 23.0718 10.5335C23.1305 11.1245 23.1748 11.7195 23.1742 12.3127L23.1741 12.4551V12.4551C23.1719 14.4211 23.1696 16.3875 23.1219 18.3528C23.0891 19.697 22.6794 20.9157 21.6649 21.8681C20.75 22.7271 19.6274 23.0994 18.411 23.1179C15.9574 23.1553 13.5021 23.1662 11.0491 23.1156C9.45003 23.0828 8.07652 22.4866 7.1455 21.1033C6.60576 20.3006 6.3543 19.3903 6.34337 18.4409C6.3146 15.9678 6.29504 13.4935 6.3474 11.0215C6.38135 9.43219 6.98266 8.06904 8.35732 7.14665C9.18592 6.5908 10.1256 6.36121 11.1061 6.33762C11.9492 6.31752 12.7929 6.32213 13.6366 6.32673H13.6366H13.6366C14.0009 6.32872 14.3652 6.33071 14.7295 6.33071L14.7302 6.29683L14.7302 6.2967ZM14.7679 7.77036L14.7684 7.77038C14.7679 7.79109 14.7679 7.81238 14.7679 7.83308C14.4447 7.83308 14.1215 7.83203 13.7983 7.83097C13.0288 7.82845 12.2592 7.82594 11.4897 7.83769C10.7877 7.84862 10.0897 7.93263 9.45563 8.26867C8.42334 8.81532 7.91985 9.73771 7.89798 10.8494C7.84735 13.4163 7.82721 15.9861 7.89626 18.5519C7.94517 20.3616 9.1029 21.5159 10.9143 21.5654C13.4605 21.6344 16.0119 21.6333 18.5587 21.5648C20.3477 21.517 21.5175 20.3501 21.5647 18.5674C21.6326 16.0109 21.6326 13.4503 21.5647 10.8937C21.5169 9.1059 20.3523 7.9942 18.561 7.8866C17.6892 7.83415 16.8155 7.816 15.942 7.79785L15.942 7.79785L15.9419 7.79785C15.5506 7.78972 15.1594 7.78159 14.7684 7.77038V7.77036H14.7679ZM19.0708 14.7312C19.0714 12.3346 17.1466 10.4023 14.746 10.3902C12.3425 10.3781 10.3907 12.3219 10.3895 14.7289C10.3884 17.1237 12.3154 19.0577 14.7149 19.0704C17.1173 19.083 19.0697 17.1381 19.0708 14.7312ZM20.2573 10.2095C20.255 9.65427 19.8096 9.20775 19.2549 9.2043C18.6847 9.20084 18.2342 9.65024 18.2365 10.2205C18.2388 10.7786 18.6801 11.2217 19.2371 11.2246C19.8073 11.228 20.2596 10.7775 20.2573 10.2095ZM14.7288 17.5495C16.2796 17.55 17.5449 16.2887 17.5489 14.7391C17.5524 13.1873 16.2951 11.9185 14.7461 11.9116C13.1948 11.9047 11.9214 13.1608 11.9116 14.7075C11.9018 16.2715 13.1677 17.5489 14.7288 17.5495Z" fill="#CCCCCC"/>
</svg>
