<svg width="29" height="29" viewBox="0 0 29 29" fill="none" xmlns="http://www.w3.org/2000/svg">
<path d="M0 15.4089C0 14.8044 0 14.2007 0 13.5963C0.0166462 13.5138 0.0378323 13.4329 0.0499386 13.3496C0.146789 12.6975 0.202781 12.0363 0.344274 11.3948C2.1065 3.41638 10.0437 -1.53966 17.9938 0.433376C25.5489 2.30882 30.2106 9.69105 28.7246 17.3245C27.5873 23.1679 22.8681 27.7805 16.9996 28.7776C16.4722 28.8676 15.9387 28.9266 15.4083 29H13.5954C13.5334 28.9841 13.4713 28.9576 13.4085 28.9539C12.1797 28.8669 10.9759 28.6406 9.82051 28.2125C4.55349 26.2621 1.35742 22.5264 0.229264 17.0271C0.120307 16.4945 0.074908 15.9483 0 15.4082V15.4089ZM15.4167 22.1201C15.4167 21.9824 15.4167 21.8697 15.4167 21.757C15.4167 20.1811 15.4121 18.6053 15.4197 17.0294C15.4227 16.4529 15.4658 15.878 15.736 15.3491C16.0795 14.6781 16.7627 14.38 17.6677 14.5011C18.2889 14.5843 18.7194 15.0072 18.8571 15.7297C18.929 16.1072 18.9661 16.4968 18.9684 16.8819C18.9805 18.5236 18.9744 20.166 18.9752 21.8077C18.9752 21.9083 18.9752 22.0089 18.9752 22.1209H22.1236C22.1296 22.0225 22.1395 21.94 22.1395 21.8576C22.1395 20.0646 22.1599 18.2716 22.1289 16.4787C22.116 15.7471 22.0487 15.0064 21.9087 14.2892C21.6756 13.0954 21.0136 12.2156 19.7901 11.8797C19.3845 11.7685 18.9555 11.7057 18.5356 11.6936C17.2235 11.6565 16.1332 12.1006 15.3955 13.2437C15.3841 13.2619 15.3546 13.2687 15.2941 13.3042V11.9637H12.2879V22.1193H15.4151L15.4167 22.1201ZM10.2692 22.1231V11.9652H7.15182V22.1231H10.2692ZM8.68024 10.5474C9.70928 10.5497 10.5371 9.72736 10.5355 8.70302C10.534 7.70062 9.69642 6.86692 8.69235 6.86843C7.68525 6.86995 6.85748 7.69759 6.85446 8.7068C6.85143 9.72283 7.66785 10.5459 8.68024 10.5482V10.5474Z" fill="#CCCCCC"/>
</svg>
