<svg width="490" height="490" viewBox="0 0 490 490" fill="none" xmlns="http://www.w3.org/2000/svg">
<path d="M490 0H374.649L317.059 57.5894V57.6471H317.002L259.412 115.236V230.271L432.353 57.33V115.294H374.706V172.941H432.273L432.353 172.86V230.588H490V172.941H489.862L490 172.803V115.294H489.92L490 115.213V57.6471H489.914L490 57.5606V0ZM317.059 115.294H316.875L317.059 115.11V115.294ZM374.706 57.6471H374.522L374.706 57.4626V57.6471Z" fill="black"/>
<path d="M317.059 316.816V316.874H317.002L259.412 374.464V489.498L432.353 316.557V374.521H374.706V432.168H432.273L432.353 432.088V489.815H490V432.168H489.862L490 432.03V374.521H489.92L490 374.44V316.874H489.914L490 316.788V259.227H374.649L317.059 316.816ZM317.059 374.521H316.875L317.059 374.337V374.521ZM374.706 316.874H374.522L374.706 316.69V316.874Z" fill="black"/>
<path d="M172.941 0.0864706V0H115.375L0 115.375V172.941H0.0864706L0 173.028V230.588H230.588V172.941H172.999L172.941 172.999V172.941H115.479L115.294 173.126V172.941H57.9641L57.6471 173.258V172.941H57.9641L115.294 115.611V115.294H115.611L172.941 57.9641V57.6471H173.258L230.588 0.317059V0H173.028L172.941 0.0864706ZM57.6471 115.381V115.294H57.7335L57.6471 115.381ZM115.294 57.7335V57.6471H115.381L115.294 57.7335Z" fill="black"/>
<path d="M172.941 316.742V317.059H172.624L115.294 374.389V374.706H114.977L57.6471 432.036V432.353H57.33L57.6471 432.036V374.706H57.4626L57.6471 374.521V317.059H57.5894L57.6471 317.001V259.412H0V490H57.5606L57.6471 489.913V490H115.213L230.588 374.625V317.059H230.502L230.588 316.972V259.412H230.271L172.941 316.742ZM115.294 432.353H115.208L115.294 432.266V432.353ZM172.941 374.706H172.855L172.941 374.619V374.706Z" fill="black"/>
</svg>
