<svg width="44" height="31" viewBox="0 0 44 31" fill="none" xmlns="http://www.w3.org/2000/svg">
<path fill-rule="evenodd" clip-rule="evenodd" d="M15.5397 1L15.6947 1.14719L16.1251 1.55601L24.094 1.05758L24.2383 1.04855L24.3425 1.14929L30.5348 7.13991L30.5942 7.19738L30.6195 7.2762L32.6375 13.5595L32.6753 13.6773L32.6267 13.7909L31.8749 15.5472L31.8249 15.6639H33.2221H33.3201L33.4021 15.7178L35.9173 17.3711L36.0123 17.4336L36.0487 17.5416L36.8889 20.0414L40.0918 20.5481L40.2858 20.5788L40.3508 20.7648L41.1368 23.0157L41.1732 23.12L41.1397 23.2252L40.4137 25.5067L42.4181 27.5759L43 28.1766L42.1663 28.1353L31.8233 27.6228L28.476 29.9302L28.3747 30L28.2527 29.986L22.5149 29.3287L22.1453 29.2864L22.2327 28.9235L22.6107 27.3544L21.1229 25.2054L21.0752 25.1364L21.0661 25.053L20.8972 23.5021L20.3902 25.1424L20.3463 25.2846L20.2109 25.3456L15.1995 27.6033L15.1303 27.6345L15.0544 27.632L4.39517 27.2893L4.30272 27.2864L4.22538 27.2354L3.51202 26.7654H2.13861H1.85943L1.81433 26.4888L1.01886 21.6106L1 21.4949L1.0581 21.3932L6.1491 12.4834L6.25176 12.3037L6.45758 12.3185L11.1864 12.658L13.9467 12.11L13.4627 11.868L13.4033 11.8383L13.36 11.7878L11.4212 9.52427L11.3193 9.4053L11.3469 9.25088L12.5735 2.40166L12.6053 2.22453L12.7708 2.15545L15.3427 1.08221L15.5397 1ZM21.7697 20.1242L21.9177 19.8774L21.5327 18.7065L21.4226 18.3718L21.7627 18.2838L24.7508 17.5104L19.3709 14.8213V17.5954L21.7661 20.1204L21.7697 20.1242ZM27.2272 16.5555L27.6634 16.3663L27.4776 16.3956L27.2272 16.5555ZM15.2713 12.7721L14.9096 12.5913L11.2707 13.3138L11.2275 13.3224L11.1835 13.3192L6.61651 12.9913L1.68629 21.6197L2.41779 26.1057H3.61022H3.70843L3.79054 26.1598L4.50867 26.633L14.9996 26.9702L19.8065 24.8047L21.1571 20.4351L18.8043 17.9548L18.7137 17.8592V17.7273V14.6101H17.9883H17.8846L17.7997 14.5504L15.2713 12.7721ZM25.2619 17.029L19.3709 14.0843V13.9505H19.1031L15.6082 12.2036L15.2535 11.9541L15.1387 11.8733L15.0019 11.9005L13.8151 11.3072L12.0214 9.21317L13.1886 2.6955L15.398 1.77355L15.7772 2.13371L15.8809 2.23224L16.0235 2.22332L23.9905 1.725L30.0194 7.55742L31.9742 13.6442L31.3427 15.1193L27.3081 15.7545L27.2404 15.7652L27.1826 15.8021L25.2619 17.029ZM25.6693 17.9498L29.419 16.3236H33.1241L35.4623 17.8605L36.3299 20.4416L36.3935 20.6308L36.5901 20.6619L39.7955 21.1691L40.4802 23.1297L39.7277 25.4944L39.6677 25.6829L39.8051 25.8247L41.3651 27.4351L31.7449 26.9585L31.6341 26.953L31.5427 27.016L28.2052 29.3166L22.9589 28.7156L23.2842 27.3654L23.3189 27.2214L23.2346 27.0997L21.7103 24.8979L21.3974 22.0243L22.5585 20.0879L22.6363 19.9582L22.5891 19.8144L22.2668 18.8345L25.621 17.9664L25.6458 17.96L25.6693 17.9498Z" fill="black" stroke="black" stroke-width="0.4"/>
</svg>
