<svg width="30" height="29" viewBox="0 0 30 29" fill="none" xmlns="http://www.w3.org/2000/svg">
<path d="M0.00752831 0.526416V0H23.7025C23.7114 0.142723 23.7272 0.271506 23.7272 0.400952C23.7272 1.50822 23.7278 2.61482 23.7272 3.72208H29.9697C29.9834 3.79643 29.9984 3.83892 29.9984 3.88074C29.9998 7.85574 30.0032 11.8307 29.9922 15.8058C29.9922 15.9591 29.8992 16.1476 29.7857 16.2591C28.486 17.5377 27.1747 18.8056 25.8627 20.0722C25.7704 20.1618 25.6486 20.2793 25.5364 20.2833C24.9338 20.3019 24.3312 20.2939 23.721 20.2932C23.721 21.0666 23.719 21.8406 23.7176 22.614C23.7169 22.8204 23.6013 23.0667 23.4583 23.2254C22.9891 23.7451 22.5267 24.2855 21.9801 24.7223C20.989 25.5136 20.5279 26.4562 20.7386 27.7102C20.8097 28.133 20.7496 28.5771 20.7496 29H2.99608C2.99608 28.1018 3.01181 27.2342 2.98377 26.3686C2.97693 26.1601 2.87296 25.9112 2.72794 25.7572C1.94951 24.9321 1.15329 24.1229 0.342707 23.3276C0.100557 23.0906 -0.000680923 22.8543 3.8147e-06 22.5184C0.00958061 15.1877 0.00752831 7.85707 0.00752831 0.526416ZM23.7251 16.285C23.9016 16.1848 24.0493 16.1111 24.1643 16.0042C24.6369 15.5688 25.1089 15.13 25.5426 14.6593C25.6944 14.4947 25.8128 14.2351 25.8148 14.0174C25.836 12.0757 25.8278 10.134 25.8265 8.1923C25.8265 8.05025 25.8142 7.90819 25.8059 7.73559H23.7278C23.7285 10.5854 23.7278 13.4352 23.7251 16.285ZM24.5603 19.0612C24.9605 19.1003 25.2348 18.9523 25.5098 18.6775C26.4701 17.7156 27.4661 16.7869 28.4224 15.821C28.5872 15.6537 28.7083 15.369 28.7097 15.1373C28.7281 11.8991 28.722 8.6603 28.722 5.42149V4.90304H23.7278V6.52941H27.0687C27.0851 6.59381 27.0988 6.62169 27.0988 6.64957C27.1015 9.32612 27.107 12.0033 27.0954 14.6799C27.0947 14.8313 26.99 15.0138 26.8765 15.1273C26.2232 15.7832 25.5248 16.3979 24.8989 17.0763C24.5521 17.4527 24.1793 17.5324 23.7244 17.466C23.7237 17.9951 23.7237 18.5248 23.7231 19.0539C24.0145 19.0499 24.2894 19.0339 24.5603 19.0612ZM4.30396 27.764H19.4389V26.4111H4.30396V27.764ZM1.60202 22.8071C2.29631 23.4869 2.95983 24.1952 3.65754 24.8703C3.79982 25.0084 4.03855 25.1279 4.2335 25.1279C9.32957 25.1418 14.425 25.1412 19.521 25.1305C19.692 25.1299 19.9068 25.0403 20.0272 24.9214C20.7742 24.1899 21.5136 23.4497 22.2216 22.6823C22.3693 22.5217 22.4343 22.2369 22.435 22.0086C22.446 16.4012 22.4439 10.7938 22.4439 5.18649V1.248H1.28531V1.72463C1.28531 8.49435 1.28736 15.2647 1.27778 22.0351C1.2771 22.3571 1.37286 22.5828 1.60202 22.8071Z" fill="black"/>
</svg>
