<svg width="32" height="37" viewBox="0 0 32 37" fill="none" xmlns="http://www.w3.org/2000/svg">
<path d="M32 26.6932C31.9078 26.8078 31.8347 26.9467 31.7212 27.034C27.5048 30.2817 23.282 33.52 19.0709 36.774C18.7137 37.0497 18.4233 37.0623 18.0269 36.8708C13.8635 34.8614 9.69263 32.8709 5.52921 30.8625C5.33101 30.7667 5.13492 30.5868 5.02998 30.3954C3.38709 27.4254 1.76327 24.4449 0.124611 21.4728C-0.0566375 21.1435 -0.0396785 20.8784 0.172308 20.5649C2.21692 17.5434 4.25305 14.5166 6.27647 11.4814C6.4185 11.2678 6.50329 10.9796 6.51177 10.7229C6.55947 9.25103 6.55947 7.77814 6.61777 6.30631C6.62943 6.00437 6.75556 5.65613 6.94317 5.41837C8.28292 3.72139 9.65236 2.04756 11.0123 0.367418C11.3716 -0.0765524 11.5624 -0.107062 12.0499 0.215921C15.4968 2.4989 18.9416 4.78292 22.3875 7.06695C24.0834 8.19055 25.775 9.31941 27.4762 10.4335C27.7656 10.6229 27.9203 10.846 27.95 11.1952C28.1885 13.958 28.4524 16.7186 28.6813 19.4823C28.7502 20.3177 28.9209 21.0857 29.3608 21.8284C30.213 23.2645 30.9825 24.749 31.7838 26.2155C31.858 26.3512 31.912 26.4985 32 26.6932ZM5.91715 29.6021C6.7333 29.2065 7.51129 28.8162 8.30306 28.4543C8.56168 28.3365 8.68782 28.1818 8.72279 27.9041C8.79169 27.3707 8.88814 26.8394 8.974 26.3081C9.04713 25.8589 9.28138 25.6621 9.65766 25.7316C9.982 25.7915 10.1336 26.0535 10.0668 26.4628C9.98306 26.9678 9.8336 27.4696 9.81453 27.9767C9.78379 28.7994 9.38313 29.2549 8.62422 29.5285C8.0614 29.7305 7.53885 30.0429 6.94423 30.3322C10.7197 32.146 14.4231 33.9261 18.1594 35.722C18.5759 33.1002 18.9861 30.5584 19.3804 28.0146C19.4737 27.4128 19.6401 26.8257 19.462 26.1892C18.8388 23.9631 18.2675 21.7232 17.6591 19.4939C17.5595 19.1299 17.5838 18.8143 17.7375 18.4702C18.2876 17.2478 18.807 16.0116 19.3561 14.7891C19.4663 14.5429 19.4461 14.3641 19.3062 14.1389C16.7624 10.0464 14.227 5.94966 11.6895 1.85398C11.6249 1.75088 11.5518 1.65199 11.468 1.52995C10.2268 3.0607 9.01322 4.55357 7.80807 6.05381C7.73388 6.14534 7.70208 6.29263 7.6989 6.41467C7.67028 7.86126 7.64272 9.30679 7.64166 10.7534C7.64166 10.9238 7.76567 11.15 7.90453 11.2573C8.6168 11.8033 9.36511 12.3031 10.0721 12.8554C10.2936 13.029 10.4961 13.2931 10.584 13.5561C10.9455 14.6397 11.309 15.7265 11.5772 16.8353C11.8072 17.7875 12.1898 18.5586 13.1247 19.0036C13.4649 19.1657 13.5285 19.5486 13.3505 19.8085C13.1756 20.0641 12.8353 20.0999 12.5046 19.88C12.1093 19.617 11.7086 19.3571 11.3366 19.0615C11.1734 18.9321 11.0239 18.7354 10.9614 18.5397C10.531 17.1878 10.1007 15.8359 9.72655 14.4682C9.5877 13.9611 9.32802 13.6192 8.8998 13.3393C8.32002 12.9595 7.76885 12.5366 7.20179 12.1305C7.15197 12.1894 7.13289 12.2073 7.11805 12.2294C5.1805 15.1163 3.24082 18.0021 1.31386 20.8963C1.2492 20.9931 1.25874 21.194 1.31598 21.3066C1.56506 21.799 1.84382 22.2766 2.11305 22.7595C3.37225 25.0246 4.63039 27.2886 5.91609 29.6021H5.91715ZM18.9141 19.758C18.948 19.9263 18.9681 20.0599 19.002 20.1883C19.4938 22.0525 19.9973 23.9147 20.47 25.7842C20.5495 26.0977 20.6841 26.165 20.982 26.1629C24.0388 26.144 27.0957 26.1398 30.1525 26.1303C30.2363 26.1303 30.3211 26.1303 30.4525 26.1303C30.355 25.9441 30.2903 25.8179 30.2225 25.6927C29.5198 24.4144 28.8064 23.1414 28.1196 21.8547C27.9606 21.557 27.7687 21.4034 27.4296 21.3634C26.9844 21.3108 26.5456 21.2046 26.1046 21.1204C23.7293 20.6701 21.3551 20.2198 18.9141 19.7569V19.758ZM27.6352 20.2903C27.3776 17.4592 27.1264 14.6923 26.8752 11.917C26.7819 11.9317 26.7395 11.9285 26.7056 11.9443C24.7172 12.8691 22.7298 13.7938 20.7446 14.7239C20.6566 14.7649 20.5612 14.8448 20.523 14.9301C19.9814 16.1515 19.4493 17.3772 18.8939 18.6491C21.8151 19.1972 24.696 19.738 27.6363 20.2903H27.6352ZM26.2371 10.9491C21.9529 8.1148 17.7312 5.32053 13.5084 2.52625C13.4904 2.54413 13.4724 2.56202 13.4543 2.5799C15.7533 6.28211 18.0513 9.98432 20.3556 13.6949C22.326 12.7754 24.2508 11.877 26.2371 10.9491ZM19.3423 35.2475C22.8485 32.5521 26.2594 29.9304 29.7211 27.2686C29.5982 27.2476 29.5611 27.235 29.524 27.235C26.6495 27.2423 23.7749 27.2539 20.9004 27.256C20.6608 27.256 20.5941 27.3433 20.5591 27.5685C20.2538 29.5421 19.9348 31.5127 19.62 33.4842C19.532 34.0345 19.4472 34.5847 19.3433 35.2464L19.3423 35.2475Z" fill="black"/>
</svg>
