<svg width="37" height="34" viewBox="0 0 37 34" fill="none" xmlns="http://www.w3.org/2000/svg">
<path d="M0 19.3457C0.0953931 18.9702 0.171515 18.588 0.290034 18.2191C0.945259 16.1814 2.31834 14.9126 4.4642 14.485C4.55671 14.4669 4.64728 14.4413 4.76002 14.4148C4.72533 14.1474 4.70799 13.8885 4.65788 13.6363C4.45264 12.615 4.75809 11.7426 5.43933 10.9755C6.0724 10.2624 6.84229 9.71528 7.66806 9.24401C9.82164 8.01603 12.1602 7.26597 14.5633 6.69228C15.5414 6.45901 16.53 6.27126 17.5061 6.06454C17.3432 5.37991 17.1332 4.71045 17.0368 4.02487C16.9559 3.44549 16.9299 2.83672 17.0147 2.26113C17.1987 1.01229 18.2856 0.0792203 19.5806 0.0137914C20.1164 -0.0127595 20.6743 -0.00991474 21.1937 0.103875C22.508 0.393089 23.3289 1.40297 23.3174 2.7893C23.3096 3.67971 23.1285 4.56821 23.0215 5.4937C23.0794 5.4937 23.2171 5.49654 23.354 5.4937C25.9845 5.43111 28.6093 5.50034 31.1608 6.20488C32.0299 6.44479 32.8788 6.8165 33.6738 7.24226C34.5834 7.72966 35.1076 8.51955 35.2222 9.58158C35.4005 11.2296 35.678 12.8663 35.8543 14.5144C36.18 17.5696 35.5132 20.42 33.9214 23.0618C33.7316 23.3766 33.5215 23.6801 33.3018 24.0196C34.8917 24.8237 36.498 25.6183 37 27.5262V28.3796C36.6059 29.819 35.5392 30.6724 34.2885 31.3485C33.7846 31.6207 33.2585 31.8644 32.7218 32.0683C29.543 33.2754 26.2138 33.7248 22.8394 33.9249C20.0913 34.088 17.3509 33.9828 14.6231 33.6348C12.3645 33.3465 10.1386 32.9065 8.00917 32.0825C6.77002 31.6027 5.58483 31.0261 4.65306 30.057C3.94002 29.3155 3.5122 28.4488 3.77718 27.4095C3.90437 26.9089 4.18188 26.4452 4.39676 25.953C4.4353 25.9786 4.42566 25.9701 4.41506 25.9654C4.30329 25.9208 4.19152 25.8791 4.08071 25.8335C2.23162 25.0835 0.854684 23.8802 0.253418 21.9438C0.148389 21.6063 0.0847939 21.2573 0.00192713 20.9131C0.00192713 20.3916 0.00192713 19.87 0.00192713 19.3485L0 19.3457ZM34.2558 11.7066C33.8241 12.0499 33.4396 12.3884 33.0214 12.6823C31.6387 13.6543 30.1038 14.3342 28.5033 14.8661C23.0003 16.6934 17.3529 17.3762 11.5676 16.8423C9.70408 16.6707 7.87909 16.2971 6.22079 15.3725C6.20922 15.3659 6.18224 15.3858 6.14563 15.4C6.2179 15.9481 6.30173 16.4971 6.36147 17.049C6.57056 18.9891 7.04849 20.8534 8.08047 22.5365C10.5231 26.522 14.1114 28.6745 18.8406 28.9476C20.4507 29.0405 22.0377 28.7665 23.6132 28.5067C28.5794 27.6855 32.0126 24.9412 33.8848 20.3489C34.7761 18.1632 34.8821 15.8808 34.514 13.5671C34.4167 12.9526 34.3434 12.3353 34.2577 11.7066H34.2558ZM32.5156 25.0342C32.4741 25.0598 32.451 25.0693 32.4346 25.0854C32.3672 25.1537 32.3016 25.2229 32.2371 25.293C30.4506 27.2218 28.3028 28.6204 25.7378 29.2738C24.174 29.672 22.5523 29.8996 20.9422 30.0618C19.7666 30.1794 18.5525 30.1775 17.3808 30.0324C14.2348 29.6445 11.5416 28.2829 9.27818 26.0943C9.19435 26.0128 8.9949 25.9682 8.88312 26.0052C8.00339 26.2991 7.11112 26.4262 6.18224 26.338C6.02711 26.3228 5.81513 26.3902 5.70528 26.4954C4.77929 27.3877 4.65403 28.317 5.59736 29.2406C6.27475 29.9044 7.09571 30.35 7.96099 30.7161C10.7813 31.909 13.7655 32.3916 16.7979 32.6391C19.65 32.8724 22.5002 32.825 25.3437 32.5007C27.6929 32.2333 30.0026 31.7933 32.212 30.9332C33.2903 30.5131 34.3348 30.0238 35.1538 29.1818C35.9757 28.336 35.9699 27.4939 35.1442 26.65C34.4032 25.8914 33.4676 25.4372 32.5146 25.0342H32.5156ZM30.6443 12.6814C30.6347 12.6349 30.6241 12.5885 30.6144 12.542C29.5661 12.6179 28.5168 12.6776 27.4694 12.7724C26.2254 12.8843 24.9968 12.8862 23.7866 12.523C21.6089 11.8687 20.2985 9.70201 20.9345 7.5713C21.1715 6.77762 21.4943 6.00765 21.6966 5.20638C21.8893 4.44209 22.0503 3.656 22.0907 2.87275C22.137 1.95485 21.607 1.39349 20.7196 1.23703C20.5211 1.20194 20.312 1.21617 20.1077 1.21522C18.7211 1.20858 18.0717 1.9008 18.1777 3.25774C18.2683 4.41649 18.6797 5.49085 19.0372 6.58323C19.253 7.24226 19.4621 7.93164 19.493 8.61627C19.57 10.3193 18.4224 11.8327 16.7054 12.4491C15.4643 12.8947 14.1789 12.9279 12.8916 12.7715C11.0897 12.5524 9.29167 12.5041 7.49173 12.7383C6.93961 12.8104 6.3923 12.9222 5.83921 13.0171C5.88836 13.4883 6.11769 13.8022 6.43952 14.0137C6.88661 14.3067 7.35298 14.594 7.84921 14.7865C9.67421 15.4939 11.6013 15.6978 13.541 15.7859C15.71 15.8836 17.8693 15.7575 20.0277 15.5176C22.9098 15.1971 25.7166 14.5817 28.431 13.5727C29.1768 13.2959 29.9081 12.9791 30.6462 12.6814H30.6443ZM24.9516 6.74633C24.2183 6.74633 23.484 6.74159 22.7508 6.75202C22.6496 6.75297 22.4752 6.80986 22.4598 6.87245C22.295 7.50967 22.0185 8.15732 22.0397 8.79264C22.0821 10.05 22.8298 10.8883 24.0333 11.3112C25.1144 11.6914 26.2331 11.6791 27.3508 11.5539C28.7894 11.3927 30.2358 11.26 31.6705 11.4411C32.4963 11.5454 33.0253 11.2666 33.4724 10.6635C33.5148 10.6066 33.5601 10.5507 33.6015 10.4928C34.1527 9.72477 34.0968 9.0297 33.3124 8.4911C32.7401 8.09758 32.0906 7.77328 31.4296 7.55234C29.3329 6.85064 27.1446 6.72926 24.9506 6.74728L24.9516 6.74633ZM6.54165 11.5444C6.55804 11.5719 6.57442 11.5994 6.59176 11.6269C6.64765 11.6213 6.70353 11.6175 6.75942 11.6099C8.46879 11.3586 10.1849 11.3045 11.9068 11.4506C12.6372 11.5122 13.3685 11.5957 14.1008 11.6184C15.023 11.6469 15.9287 11.5283 16.7593 11.0912C18.1497 10.361 18.6797 8.63618 17.8992 7.19959C16.4837 7.52579 15.0355 7.8169 13.6123 8.1962C11.5532 8.74618 9.55762 9.47253 7.75768 10.6322C7.33274 10.9063 6.94635 11.2391 6.54165 11.5444ZM4.92479 15.6428C4.14719 15.7385 3.49775 15.9965 2.92153 16.4298C1.50895 17.4928 0.857574 19.6605 1.41452 21.519C1.99651 23.462 3.46595 24.4539 5.34394 24.9593C6.28053 25.2106 7.23446 25.2257 8.21441 24.9327C7.9976 24.635 7.81934 24.3533 7.60158 24.1058C7.511 24.0025 7.34238 23.9266 7.2017 23.9134C6.72473 23.8659 6.23042 23.9171 5.76887 23.8147C3.98338 23.4184 2.67872 22.3715 2.48986 20.6343C2.31834 19.0555 2.91961 17.177 5.01055 16.8451C5.02885 16.8423 5.04234 16.8129 5.07703 16.7769C5.02885 16.4213 4.97875 16.0486 4.92383 15.6437L4.92479 15.6428ZM6.74208 22.6759C5.96737 21.2033 5.48269 19.6785 5.25144 18.0816C4.62801 18.094 4.12792 18.4619 3.89763 19.0555C3.15086 20.9823 4.55382 22.8068 6.74208 22.6749V22.6759Z" fill="black"/>
</svg>
