<svg width="33" height="40" viewBox="0 0 33 40" fill="none" xmlns="http://www.w3.org/2000/svg">
<path fill-rule="evenodd" clip-rule="evenodd" d="M15.5852 39.9539C15.8727 39.9686 16.1603 39.9834 16.4479 39.999L16.4469 40H19.6499C19.6842 39.9944 19.7183 39.9876 19.7524 39.9809C19.8199 39.9675 19.8873 39.9542 19.9551 39.95C20.4459 39.9219 20.9369 39.8966 21.4279 39.8713C22.4833 39.817 23.5386 39.7627 24.5915 39.6802C26.355 39.5417 28.1174 39.3406 29.8142 38.8125C30.4496 38.6146 31.083 38.3292 31.635 37.9605C32.2954 37.5188 32.2715 36.8303 31.6548 36.3282C31.4069 36.1261 31.1225 35.9387 30.8226 35.8334C30.7174 35.7966 30.6122 35.759 30.5067 35.7215C29.8884 35.501 29.2645 35.2785 28.6247 35.1762C27.0638 34.9264 25.4928 34.7409 23.9223 34.5554C23.7374 34.5335 23.5525 34.5117 23.3675 34.4897C23.0978 34.4574 22.9894 34.3564 22.9248 34.1137C22.8519 33.8398 22.7706 33.5681 22.6893 33.2963C22.6104 33.0327 22.5316 32.769 22.4603 32.5033C21.8645 30.2794 20.8176 28.3461 18.8833 26.9983C18.6041 26.8035 18.5822 26.6274 18.6625 26.3306C19.9415 21.5829 21.2129 16.8326 22.4844 12.0821C22.6138 11.5984 22.7433 11.1147 22.8728 10.631C23.0238 10.0685 22.9155 9.8862 22.3519 9.79245C21.3603 9.62719 20.3678 9.46655 19.3753 9.30591C18.879 9.22558 18.3826 9.14525 17.8864 9.06435C16.7219 8.87477 15.5573 8.68519 14.3709 8.49145V3.6624C14.4824 3.6624 14.5913 3.66182 14.6984 3.66125C14.9424 3.65995 15.1769 3.6587 15.4115 3.66449C15.7625 3.67282 15.9709 3.52387 16.0552 3.17492C16.2521 2.36661 16.4573 1.56038 16.6677 0.75623C16.7542 0.423947 16.6833 0.167704 16.3698 0H11.3699C11.3198 0.00477363 11.2696 0.010775 11.2192 0.0167985C11.1155 0.0291761 11.0112 0.0416469 10.9054 0.0437489C10.2796 0.0490935 9.65397 0.0528517 9.02851 0.0566091C8.31308 0.060907 7.59782 0.065204 6.88255 0.0718731C6.39089 0.0760397 6.20548 0.3052 6.32423 0.763522C6.42484 1.15276 6.5291 1.54107 6.63339 1.92944C6.75152 2.36941 6.86968 2.80945 6.98255 3.25096C7.06379 3.56866 7.24921 3.70407 7.57107 3.6947C7.81892 3.68753 8.06726 3.68924 8.32423 3.691C8.44093 3.6918 8.5594 3.69261 8.68042 3.69261V7.55189C8.51014 7.52853 8.33905 7.49387 8.16848 7.45931C7.79124 7.38288 7.41652 7.30696 7.05859 7.35502C6.12319 7.48001 5.20134 7.73417 4.28783 7.98729C3.70242 8.14979 3.32223 8.5654 3.15973 9.17476C2.48375 11.7083 1.80414 14.2414 1.1245 16.7747C0.773616 18.0825 0.422721 19.3904 0.0723096 20.6984C-0.0714367 21.2359 -0.0151882 21.764 0.37126 22.165C0.914677 22.7294 1.48485 23.2676 2.05485 23.8057C2.22235 23.9638 2.38983 24.1219 2.55662 24.2806C2.6019 24.3236 2.6681 24.3451 2.73356 24.3663C2.75694 24.3739 2.78024 24.3815 2.80245 24.39C3.48552 24.6488 4.16863 24.9074 4.85176 25.1661C7.47401 26.1591 10.0964 27.1521 12.7168 28.1503C12.9324 28.2316 13.1459 28.3472 13.323 28.493C13.5819 28.7059 13.8427 28.9167 14.1036 29.1276C14.9163 29.7847 15.7292 30.442 16.4854 31.1596C17.1104 31.7523 17.3344 32.7127 16.7833 33.4314C16.3625 33.9804 15.7719 34.2897 15.0823 34.3543C14.7873 34.3819 14.4905 34.3915 14.1938 34.4011C13.8525 34.4121 13.5113 34.4232 13.173 34.4616C13.0622 34.4743 12.9515 34.4869 12.8407 34.4995C11.0534 34.7033 9.2649 34.9072 7.48566 35.173C6.47214 35.3241 5.47113 35.6032 4.60136 36.1907C3.75346 36.7626 3.74096 37.5574 4.60865 38.0886C5.12322 38.4032 5.69925 38.648 6.27944 38.8157C8.6575 39.5021 11.1137 39.675 13.5678 39.8396C14.2399 39.8848 14.9124 39.9193 15.5852 39.9539ZM18.2909 10.0801C19.4871 10.2754 20.6852 10.471 21.8957 10.6685H21.8978C21.0588 13.8003 20.2225 16.921 19.3857 20.0435C18.4916 23.3796 17.597 26.7179 16.6979 30.0742C16.5267 29.9343 16.358 29.8015 16.1929 29.6716C15.8358 29.3906 15.4957 29.1231 15.1844 28.8253C14.1011 27.7889 12.8251 27.1285 11.4189 26.6264C9.55925 25.9629 7.71484 25.2568 5.87037 24.5507C5.11752 24.2625 4.36467 23.9743 3.61076 23.689C3.56179 23.6701 3.51282 23.6505 3.44748 23.6243C3.4336 23.6187 3.41899 23.6129 3.40347 23.6067C4.52575 19.4211 5.64521 15.2425 6.77056 11.0419C7.01245 10.1391 7.2546 9.23518 7.49712 8.32999C7.66431 8.35608 7.82887 8.38163 7.99375 8.40724C8.23052 8.44401 8.46795 8.48089 8.71479 8.51957V10.7653C8.71584 12.4413 9.92622 13.7215 11.5231 13.7382C13.0918 13.7549 14.3605 12.4632 14.3959 10.8081C14.4022 10.5121 14.4005 10.2161 14.3987 9.90651C14.3978 9.75626 14.3969 9.60279 14.3969 9.44455C15.7017 9.6574 16.9952 9.86857 18.2909 10.0801ZM6.35758 37.8688C5.84449 37.7264 5.31929 37.5806 4.82117 37.1011C4.93607 37.0404 5.04126 36.9809 5.14085 36.9246C5.34009 36.8119 5.51695 36.7119 5.70445 36.6397C7.06067 36.1168 8.48563 35.8668 9.91997 35.7157C11.4981 35.5499 13.083 35.4412 14.6671 35.3325C14.8343 35.3211 15.0016 35.3096 15.1688 35.298C16.5552 35.2022 17.9 34.0981 17.95 32.8523C17.9661 32.4555 17.8636 32.0541 17.7609 31.6523C17.7116 31.4592 17.6622 31.2659 17.626 31.0732C17.6182 31.0319 17.6088 30.9898 17.5993 30.9473C17.5648 30.7924 17.5292 30.6328 17.5635 30.493C17.7249 29.8352 17.904 29.1813 18.0894 28.504C18.1589 28.2503 18.2293 27.9933 18.3 27.7316C19.077 28.3013 19.6968 28.9503 20.2155 29.7024C20.9884 30.8232 21.3801 32.1012 21.7592 33.3877C21.9717 34.1085 22.1863 34.8356 22.4832 35.5241C22.9769 36.672 23.9311 37.2126 25.1446 37.3428C25.4696 37.3772 25.7279 37.3032 25.78 36.9376C25.8321 36.5699 25.5623 36.4824 25.2821 36.4136C25.1952 36.3924 25.1067 36.3745 25.0181 36.3566C24.7985 36.3122 24.5786 36.2677 24.3842 36.172C24.1683 36.0662 23.9749 35.915 23.7815 35.7638C23.6986 35.699 23.6157 35.6343 23.5311 35.573C23.556 35.5253 23.5799 35.4765 23.6037 35.4277L23.604 35.4272C23.8645 35.4551 24.126 35.4783 24.3876 35.5016C24.9763 35.5539 25.5654 35.6063 26.1445 35.7116C27.5091 35.9584 28.8653 36.2595 30.2163 36.5782C30.4531 36.6338 30.6723 36.7608 30.8916 36.8878C30.9926 36.9463 31.0937 37.0048 31.1965 37.0563C31.1944 37.0823 31.1926 37.1086 31.1908 37.1349C31.189 37.1612 31.1871 37.1876 31.185 37.2136C31.1115 37.2544 31.0395 37.3009 30.9674 37.3474C30.8129 37.4472 30.6583 37.547 30.4892 37.5896C30.1781 37.6677 29.8672 37.7495 29.5562 37.8312C28.5731 38.0896 27.5885 38.3484 26.5883 38.4948C22.129 39.1459 17.6427 39.1813 13.1532 38.8886C10.8814 38.7396 8.61792 38.4969 6.41381 37.8844C6.39508 37.8792 6.37634 37.874 6.35758 37.8688ZM5.87025 8.53171C6.06917 8.4803 6.27423 8.4273 6.48777 8.37062C5.68258 11.3763 4.88938 14.3359 4.09286 17.3079C3.58176 19.215 3.06929 21.1271 2.55141 23.0598C2.4058 22.907 2.26292 22.7594 2.12297 22.6149C1.73631 22.2155 1.37207 21.8393 1.03478 21.4401C0.931662 21.3182 0.959786 21.0328 1.00979 20.8442C1.62897 18.5098 2.25332 16.1765 2.87768 13.8432C3.26376 12.4003 3.64984 10.9575 4.03471 9.51434C4.11908 9.19768 4.29928 8.96643 4.60344 8.87581C5.01216 8.75348 5.42584 8.64657 5.87025 8.53171ZM9.66164 3.86136H13.4095V5.19049C13.4095 5.75362 13.4099 6.31666 13.4104 6.87964C13.4114 8.23067 13.4125 9.58134 13.4074 10.932C13.4043 11.8184 12.8157 12.5205 11.948 12.7122C11.0949 12.8997 10.2116 12.4945 9.86476 11.7143C9.74706 11.4487 9.6731 11.1393 9.66998 10.8497C9.65197 9.07045 9.64811 7.29053 9.64425 5.51048C9.6432 5.02502 9.64215 4.53954 9.64081 4.05406C9.64081 4.02032 9.64536 3.98657 9.65146 3.94139C9.65458 3.91823 9.65811 3.89207 9.66164 3.86136ZM7.47518 1.43367C7.43853 1.29167 7.40112 1.14667 7.3617 0.997891V0.996849H15.6292C15.5955 1.13101 15.5623 1.26531 15.5292 1.39959C15.4324 1.79179 15.3357 2.18382 15.224 2.57181C15.2042 2.64264 15.0532 2.71764 14.9625 2.71764C12.672 2.73535 10.3814 2.74576 8.09085 2.74472C7.98565 2.74472 7.81378 2.64368 7.78565 2.5541C7.67104 2.19269 7.57605 1.82456 7.47518 1.43367ZM13.1439 10.1039C13.145 9.16434 12.4898 8.50082 11.5586 8.49561C10.6159 8.49144 9.9659 9.13414 9.95965 10.0789C9.9534 11.0278 10.5951 11.7028 11.5159 11.7153C12.4585 11.7289 13.1439 11.0518 13.1439 10.1039ZM12.2179 10.0935C12.2221 10.4695 11.9377 10.7674 11.5659 10.7778C11.1836 10.7883 10.9013 10.5185 10.8888 10.1299C10.8763 9.72787 11.1221 9.45288 11.5107 9.43621C11.919 9.41954 12.2138 9.69245 12.2179 10.0935Z" fill="black"/>
</svg>
