<svg width="36" height="36" viewBox="0 0 36 36" fill="none" xmlns="http://www.w3.org/2000/svg">
<path fill-rule="evenodd" clip-rule="evenodd" d="M17.9625 7.57104L20.4987 12.7108L26.1712 13.5344L22.0668 17.5353L23.0348 23.1843L17.9625 20.5174L12.8903 23.1843L13.8583 17.5353L9.75391 13.5344L15.4263 12.7108L17.9625 7.57104ZM17.9625 10.19L16.1959 13.7701L12.2445 14.3438L15.1034 17.1307L14.4291 21.0659L17.9625 19.2081L21.496 21.0659L20.8216 17.1307L23.6805 14.3438L19.7291 13.7701L17.9625 10.19Z" fill="black"/>
<path fill-rule="evenodd" clip-rule="evenodd" d="M17.9629 0L35.9258 5.13226V5.56934C35.9258 16.9119 31.5092 24.4987 27.0783 29.2461C24.8664 31.616 22.6542 33.2754 20.9924 34.3437C20.1612 34.878 19.4667 35.2651 18.9774 35.5198C18.7326 35.6472 18.5391 35.7415 18.4052 35.8046C18.3383 35.8361 18.2863 35.8599 18.2503 35.8761L18.2083 35.8947L18.1966 35.8998L18.1931 35.9013L18.1919 35.9018C18.1915 35.902 18.1912 35.9022 17.9629 35.3696C17.7347 35.9022 17.7343 35.902 17.7339 35.9018L17.7327 35.9013L17.7292 35.8998L17.7175 35.8947L17.6756 35.8761C17.6395 35.8599 17.5875 35.8361 17.5206 35.8046C17.3868 35.7415 17.1932 35.6472 16.9485 35.5198C16.4591 35.2651 15.7646 34.878 14.9334 34.3437C13.2717 33.2754 11.0595 31.616 8.84757 29.2461C4.41664 24.4987 0 16.9119 0 5.56934V5.13226L17.9629 0ZM17.9629 35.3696L17.7347 35.9022L17.9629 36L18.1912 35.9022L17.9629 35.3696ZM17.9629 34.7317C18.0811 34.6753 18.2427 34.5957 18.4424 34.4918C18.9036 34.2517 19.5672 33.8822 20.3657 33.3689C21.9634 32.3418 24.0971 30.7418 26.231 28.4554C30.4353 23.9509 34.6534 16.7707 34.7647 6.00578L17.9629 1.20527L1.16115 6.00578C1.2724 16.7707 5.49056 23.9509 9.69479 28.4554C11.8288 30.7418 13.9624 32.3418 15.5601 33.3689C16.3586 33.8822 17.0222 34.2517 17.4835 34.4918C17.6831 34.5957 17.8447 34.6753 17.9629 34.7317Z" fill="black"/>
</svg>
