<svg width="38" height="36" viewBox="0 0 38 36" fill="none" xmlns="http://www.w3.org/2000/svg">
<path fill-rule="evenodd" clip-rule="evenodd" d="M36.868 12.39H0.730469V11.1854H36.868V12.39Z" fill="black"/>
<path fill-rule="evenodd" clip-rule="evenodd" d="M19.3131 0.286621L26.3373 11.701L19.3776 35.1901L18.2227 34.8479L25.0296 11.8744L18.2872 0.91794L19.3131 0.286621Z" fill="black"/>
<path fill-rule="evenodd" clip-rule="evenodd" d="M18.2879 0.286621L19.3138 0.91794L12.5714 11.8744L19.3783 34.8479L18.2234 35.1901L11.2637 11.701L18.2879 0.286621Z" fill="black"/>
<path fill-rule="evenodd" clip-rule="evenodd" d="M11.3548 12.004L7.05273 0.818529L8.17703 0.386108L12.4791 11.5715L11.3548 12.004Z" fill="black"/>
<path fill-rule="evenodd" clip-rule="evenodd" d="M25.1211 11.5715L29.4232 0.386108L30.5475 0.818529L26.2454 12.004L25.1211 11.5715Z" fill="black"/>
<path fill-rule="evenodd" clip-rule="evenodd" d="M7.27864 0H30.3226L37.6012 11.8278L18.8006 36L0 11.8278L7.27864 0ZM7.95175 1.20458L1.46371 11.7476L18.8006 34.0379L36.1375 11.7476L29.6495 1.20458H7.95175Z" fill="black"/>
</svg>
