<svg width="40" height="37" viewBox="0 0 40 37" fill="none" xmlns="http://www.w3.org/2000/svg">
<path d="M30.8422 24.0212L34.564 21.8896C35.161 21.5484 35.8688 21.4572 36.5328 21.636C37.1969 21.8147 37.7633 22.2489 38.1084 22.8437L38.139 22.8966C38.4604 23.4434 38.5768 24.0868 38.4674 24.7115C38.3581 25.3363 38.0302 25.9019 37.5422 26.3071L30.6214 32.0198C30.2074 32.3621 29.7178 32.6009 29.1932 32.7164L16.0626 35.6341C15.6135 35.7338 15.1489 35.7416 14.6967 35.657C14.2446 35.5725 13.8141 35.3973 13.4314 35.1421L5.26999 29.71C4.70972 29.3364 4.0514 29.137 3.378 29.137H1V18.9054L7.0537 18.2327C8.11932 18.1141 9.19787 18.2488 10.2016 18.6257L14.8613 20.3728C15.2829 20.5313 15.7194 20.6472 16.1641 20.719L24.8814 22.1335C25.5741 22.1835 26.2222 22.4939 26.6953 23.0023C27.1684 23.5107 27.4315 24.1793 27.4317 24.8738C27.4315 25.5685 27.1683 26.2373 26.695 26.7457C26.2217 27.2541 25.5734 27.5644 24.8806 27.6142L15.4948 28.2844" stroke="black" stroke-width="1.4" stroke-miterlimit="10" stroke-linecap="square"/>
<path d="M24.0214 16.3474C28.2594 16.3474 31.6951 12.9118 31.6951 8.67371C31.6951 4.43564 28.2594 1 24.0214 1C19.7833 1 16.3477 4.43564 16.3477 8.67371C16.3477 12.9118 19.7833 16.3474 24.0214 16.3474Z" stroke="black" stroke-width="1.4" stroke-miterlimit="10" stroke-linecap="square"/>
<path d="M24.02 5.2632L20.6094 8.67383L24.02 12.0845L27.4306 8.67383L24.02 5.2632Z" stroke="black" stroke-width="1.4" stroke-miterlimit="10" stroke-linecap="square"/>
</svg>
