<svg width="40" height="36" viewBox="0 0 40 36" fill="none" xmlns="http://www.w3.org/2000/svg">
<path fill-rule="evenodd" clip-rule="evenodd" d="M1.11328 12.844L1.7515 12.8441C4.36753 12.8446 6.95468 13.3909 9.34752 14.4482L9.93119 14.7061L9.41538 15.8735L8.83172 15.6156C6.79977 14.7177 4.6175 14.2152 2.4015 14.1325C2.5652 18.5624 4.39668 22.7769 7.54252 25.9227C9.17623 27.5564 11.1157 28.8524 13.2503 29.7365C15.3848 30.6207 17.6726 31.0757 19.983 31.0757V32.352C19.9779 32.352 19.9727 32.352 19.9675 32.352H19.3294V32.3406C17.0744 32.2625 14.8498 31.7804 12.7619 30.9156C10.4725 29.9673 8.39232 28.5773 6.6401 26.8251C3.10134 23.2864 1.11328 18.4868 1.11328 13.4822V12.844Z" fill="black"/>
<path fill-rule="evenodd" clip-rule="evenodd" d="M4.17404 29.2015L3.62317 29.5235C2.9726 29.9039 2.35749 30.3411 1.78495 30.8298C2.81181 31.9079 4.02363 32.7958 5.36455 33.4504C6.89298 34.1966 8.5572 34.6241 10.256 34.7069C11.9548 34.7898 13.6528 34.5262 15.2465 33.9323C16.8403 33.3384 18.2966 32.4266 19.527 31.2522L19.7119 31.0757H20.6212V32.3519H20.2197C18.9048 33.5608 17.3674 34.5039 15.6922 35.1282C13.9362 35.7825 12.0655 36.0729 10.1939 35.9816C8.32218 35.8903 6.48862 35.4193 4.80467 34.5973C3.12073 33.7752 1.62157 32.6192 0.398369 31.1996L0 30.7373L0.444126 30.3187C1.21462 29.5925 2.06504 28.9562 2.97906 28.4218L3.52993 28.0997L4.17404 29.2015Z" fill="black"/>
<path fill-rule="evenodd" clip-rule="evenodd" d="M38.8385 12.844V13.4822C38.8385 15.9602 38.3504 18.414 37.4021 20.7033C36.4538 22.9927 35.0639 25.0729 33.3117 26.8251C31.5595 28.5773 29.4793 29.9673 27.1899 30.9156C25.102 31.7804 22.8774 32.2625 20.6224 32.3406V32.352H19.9842C19.9791 32.352 19.9739 32.352 19.9688 32.352V31.0757C22.2792 31.0757 24.567 30.6207 26.7015 29.7365C28.836 28.8524 30.7755 27.5564 32.4093 25.9227C34.043 24.289 35.3389 22.3495 36.223 20.215C37.0242 18.2809 37.473 16.221 37.5503 14.1325C35.3343 14.2152 33.152 14.7177 31.1201 15.6156L30.5364 15.8735L30.0206 14.7061L30.6042 14.4482C32.9971 13.3909 35.5842 12.8446 38.2003 12.8441L38.8385 12.844Z" fill="black"/>
<path fill-rule="evenodd" clip-rule="evenodd" d="M19.9843 0L20.4355 0.451198C22.5179 2.53355 24.1697 5.00567 25.2967 7.72641C26.4237 10.4471 27.0037 13.3632 27.0037 16.3081C27.0037 19.2531 26.4237 22.1691 25.2967 24.8899C24.1697 27.6106 22.5179 30.0827 20.4355 32.1651L19.9843 32.6163L19.5331 32.1651C17.4507 30.0827 15.7989 27.6106 14.6719 24.8899C13.5449 22.1691 12.9648 19.2531 12.9648 16.3081C12.9648 13.3632 13.5449 10.4471 14.6719 7.72641C15.7989 5.00567 17.4507 2.53355 19.5331 0.451198L19.9843 0ZM19.9843 1.81887C18.2321 3.68187 16.831 5.84864 15.8509 8.2148C14.7881 10.7807 14.2411 13.5308 14.2411 16.3081C14.2411 19.0855 14.7881 21.8356 15.8509 24.4015C16.831 26.7676 18.2321 28.9344 19.9843 30.7974C21.7365 28.9344 23.1375 26.7676 24.1176 24.4015C25.1805 21.8356 25.7275 19.0855 25.7275 16.3081C25.7275 13.5308 25.1805 10.7807 24.1176 8.2148C23.1375 5.84864 21.7365 3.68187 19.9843 1.81887Z" fill="black"/>
<path fill-rule="evenodd" clip-rule="evenodd" d="M36.423 28.0997L36.9739 28.4218C37.8879 28.9562 38.7383 29.5925 39.5088 30.3187L39.9529 30.7372L39.5546 31.1995C38.3314 32.6197 36.832 33.7762 35.1477 34.5986C33.4635 35.4211 31.6295 35.8922 29.7573 35.9835C27.8852 36.0748 26.014 35.7843 24.2577 35.1296C22.5821 34.505 21.0444 33.5614 19.7295 32.3519H19.3281V31.0757H20.2375L20.4224 31.2523C21.6528 32.4272 23.1094 33.3395 24.7035 33.9337C26.2976 34.528 27.9959 34.7917 29.6952 34.7088C31.3944 34.626 33.059 34.1983 34.5878 33.4518C35.929 32.7969 37.1411 31.9085 38.1681 30.8299C37.5955 30.3411 36.9804 29.9039 36.3298 29.5235L35.7789 29.2015L36.423 28.0997Z" fill="black"/>
</svg>
