<svg width="36" height="36" viewBox="0 0 36 36" fill="none" xmlns="http://www.w3.org/2000/svg">
<path fill-rule="evenodd" clip-rule="evenodd" d="M11.5566 4.701L4.70002 11.5576L3.85156 10.7091L10.7082 3.85254L11.5566 4.701Z" fill="black"/>
<path fill-rule="evenodd" clip-rule="evenodd" d="M26.1367 32.9931L32.9933 26.1365L33.8418 26.9849L26.9852 33.8415L26.1367 32.9931Z" fill="black"/>
<path fill-rule="evenodd" clip-rule="evenodd" d="M25.7031 17.9985L33.9694 26.2649L35.8957 35.8962L26.2644 33.9699L17.998 25.7036L18.8465 24.8551L26.856 32.8646L34.3661 34.3666L32.8641 26.8564L24.8546 18.847L25.7031 17.9985Z" fill="black"/>
<path fill-rule="evenodd" clip-rule="evenodd" d="M7.70506 0L17.9813 10.2763L17.1329 11.1247L7.70506 1.69692L1.69692 7.70506L11.1247 17.1329L10.2763 17.9813L0 7.70506L7.70506 0Z" fill="black"/>
<path fill-rule="evenodd" clip-rule="evenodd" d="M26.5607 0L35.9799 9.4192L9.4192 35.9799L0 26.5607L26.5607 0ZM1.69692 26.5607L9.4192 34.283L34.283 9.4192L26.5607 1.69692L1.69692 26.5607Z" fill="black"/>
<path fill-rule="evenodd" clip-rule="evenodd" d="M16.2762 10.2849L18.8388 12.8475L17.9903 13.696L15.4277 11.1334L16.2762 10.2849Z" fill="black"/>
<path fill-rule="evenodd" clip-rule="evenodd" d="M21.4188 5.14246L25.6955 9.41921L24.8471 10.2677L20.5703 5.99092L21.4188 5.14246Z" fill="black"/>
<path fill-rule="evenodd" clip-rule="evenodd" d="M11.1336 15.4274L15.4104 19.7041L14.5619 20.5526L10.2852 16.2758L11.1336 15.4274Z" fill="black"/>
<path fill-rule="evenodd" clip-rule="evenodd" d="M5.99104 20.5698L8.55365 23.1324L7.70519 23.9809L5.14258 21.4183L5.99104 20.5698Z" fill="black"/>
</svg>
