<svg width="37" height="37" viewBox="0 0 37 37" fill="none" xmlns="http://www.w3.org/2000/svg">
<path d="M18.5 6C19.8807 6 21 4.88071 21 3.5C21 2.11929 19.8807 1 18.5 1C17.1193 1 16 2.11929 16 3.5C16 4.88071 17.1193 6 18.5 6Z" stroke="black" stroke-width="1.4" stroke-miterlimit="10" stroke-linecap="square"/>
<path d="M33.5 12.6667C34.8807 12.6667 36 11.5475 36 10.1667C36 8.78604 34.8807 7.66675 33.5 7.66675C32.1193 7.66675 31 8.78604 31 10.1667C31 11.5475 32.1193 12.6667 33.5 12.6667Z" stroke="black" stroke-width="1.4" stroke-miterlimit="10" stroke-linecap="square"/>
<path d="M31.8086 11.9983L23.4994 21L19.1836 5.89331" stroke="black" stroke-width="1.4" stroke-miterlimit="10"/>
<path d="M28.5 30.9999L32.9183 12.5916" stroke="black" stroke-width="1.4" stroke-miterlimit="10"/>
<path d="M3.5 12.6667C4.88071 12.6667 6 11.5475 6 10.1667C6 8.78604 4.88071 7.66675 3.5 7.66675C2.11929 7.66675 1 8.78604 1 10.1667C1 11.5475 2.11929 12.6667 3.5 12.6667Z" stroke="black" stroke-width="1.4" stroke-miterlimit="10" stroke-linecap="square"/>
<path d="M5.1875 11.9983L13.4967 21L17.8125 5.89331" stroke="black" stroke-width="1.4" stroke-miterlimit="10"/>
<path d="M8.50036 30.9999L4.08203 12.5916" stroke="black" stroke-width="1.4" stroke-miterlimit="10"/>
<path d="M33.5 31H3.5V36H33.5V31Z" stroke="black" stroke-width="1.4" stroke-miterlimit="10" stroke-linecap="square"/>
</svg>
