<svg width="37" height="37" viewBox="0 0 37 37" fill="none" xmlns="http://www.w3.org/2000/svg">
<path d="M30.1679 23.3079L33.492 26.3078C34.0035 26.7699 34.4157 27.3311 34.7034 27.9574C34.9912 28.5837 35.1486 29.262 35.1661 29.9511C35.1836 30.6401 35.0607 31.3255 34.805 31.9656C34.5493 32.6056 34.1661 33.187 33.6787 33.6744C33.1914 34.1618 32.61 34.545 31.9699 34.8007C31.3298 35.0564 30.6444 35.1792 29.9554 35.1618C29.2663 35.1443 28.588 34.9869 27.9617 34.6991C27.3354 34.4113 26.7742 33.9992 26.3121 33.4877L21.8047 28.4995" stroke="black" stroke-width="1.4" stroke-miterlimit="10" stroke-linecap="square"/>
<path d="M17.0206 14.0748L10.9999 8.05325V5.99994L5.99994 1L1 5.99994L5.99994 10.9999H8.05325L13.9248 16.8715" stroke="black" stroke-width="1.4" stroke-miterlimit="10"/>
<path d="M35.5958 7.15896L30.8142 11.9397L25.0643 6.1898L29.8451 1.40819C28.7387 1.08211 27.5836 0.953475 26.4326 1.0282C24.3084 1.20397 22.3154 2.12756 20.8081 3.63468C19.3008 5.14179 18.377 7.13472 18.201 9.25893C18.1257 10.4113 18.2546 11.568 18.5819 12.6756L1.83457 27.7954C1.58101 28.0246 1.3767 28.3029 1.23405 28.6135C1.09139 28.9241 1.01337 29.2605 1.00471 29.6022C0.996063 29.9439 1.05697 30.2837 1.18372 30.6012C1.31048 30.9186 1.50044 31.2069 1.74207 31.4487L5.55452 35.2611C5.79639 35.5022 6.08471 35.6916 6.40199 35.818C6.71926 35.9443 7.05889 36.0048 7.40028 35.9959C7.74166 35.987 8.07768 35.9089 8.38796 35.7663C8.69824 35.6236 8.97631 35.4195 9.20531 35.1661L24.3343 18.4222C25.4418 18.7494 26.5985 18.8783 27.7509 18.803C29.8751 18.627 31.8681 17.7032 33.3752 16.1959C34.8823 14.6887 35.8059 12.6956 35.9817 10.5714C36.0545 9.4201 35.9239 8.26495 35.5958 7.15896Z" stroke="black" stroke-width="1.4" stroke-miterlimit="10" stroke-linecap="square"/>
</svg>
