<svg width="36" height="36" viewBox="0 0 36 36" fill="none" xmlns="http://www.w3.org/2000/svg">
<path fill-rule="evenodd" clip-rule="evenodd" d="M4.82068 29.2275C4.43706 29.6906 4.28201 30.1791 4.28201 30.6873C4.28201 31.5342 4.8402 32.5713 6.89187 33.4256C8.95031 34.2827 12.3883 34.8899 17.824 34.8899C23.8343 34.8899 28.1772 34.3316 30.9982 33.4667C32.4107 33.0336 33.4063 32.5342 34.0379 32.0181C34.6643 31.5064 34.8899 31.0177 34.8899 30.5794C34.8899 30.1442 34.6677 29.6709 34.0454 29.1801C33.4158 28.6836 32.4215 28.2097 31.0073 27.8025C28.1836 26.9894 23.8381 26.4846 17.824 26.4846C12.3827 26.4846 8.94467 27.0399 6.88646 27.8715C5.86219 28.2854 5.21221 28.7549 4.82068 29.2275ZM6.47055 26.8423C8.72957 25.9294 12.34 25.3745 17.824 25.3745C23.8803 25.3745 28.3452 25.8807 31.3145 26.7357C32.7967 27.1625 33.9445 27.6867 34.7328 28.3084C35.5285 28.9359 36.0001 29.7007 36.0001 30.5794C36.0001 31.4547 35.5319 32.231 34.7403 32.8778C33.954 33.5203 32.8075 34.0731 31.3236 34.528C28.3517 35.4392 23.8841 36.0001 17.824 36.0001C12.3345 36.0001 8.72393 35.3909 6.46514 34.4504C4.19958 33.5071 3.17188 32.1653 3.17188 30.6873C3.17188 29.9267 3.4133 29.1862 3.96581 28.5193C4.5104 27.8619 5.33621 27.3006 6.47055 26.8423Z" fill="black"/>
<path fill-rule="evenodd" clip-rule="evenodd" d="M3.125 17.2978C5.22613 16.3918 8.51723 15.859 13.3573 15.859C18.8772 15.859 23.0742 16.393 25.9109 17.2776C27.3271 17.7192 28.4392 18.2588 29.2079 18.8911C29.9816 19.5274 30.4493 20.2967 30.4493 21.1718C30.4493 22.0468 29.9816 22.8161 29.2079 23.4525C28.4392 24.0848 27.3271 24.6244 25.9109 25.066C23.0742 25.9505 18.8772 26.4846 13.3573 26.4846C8.51723 26.4846 5.22613 25.9517 3.125 25.0458C2.06909 24.5905 1.28585 24.0292 0.764897 23.367C0.237732 22.697 0 21.9494 0 21.1718C0 20.3942 0.237732 19.6466 0.764897 18.9766C1.28585 18.3144 2.06909 17.7531 3.125 17.2978ZM1.63737 19.663C1.26888 20.1314 1.11013 20.6354 1.11013 21.1718C1.11013 21.7081 1.26888 22.2122 1.63737 22.6806C2.01208 23.1569 2.62369 23.6207 3.56454 24.0264C5.45691 24.8423 8.56691 25.3744 13.3573 25.3744C18.8237 25.3744 22.8951 24.8435 25.5804 24.0062C26.9251 23.5869 27.8874 23.1012 28.5027 22.5951C29.1131 22.093 29.3392 21.6107 29.3392 21.1718C29.3392 20.7329 29.1131 20.2505 28.5027 19.7485C27.8874 19.2424 26.9251 18.7567 25.5804 18.3374C22.8951 17.5 18.8237 16.9691 13.3573 16.9691C8.56691 16.9691 5.45691 17.5013 3.56454 18.3172C2.62369 18.7229 2.01208 19.1867 1.63737 19.663Z" fill="black"/>
<path fill-rule="evenodd" clip-rule="evenodd" d="M11.574 10.1414C10.2908 10.79 9.83279 11.6153 9.83279 12.4494C9.83279 13.2281 10.39 14.0705 11.8854 14.7471C13.3714 15.4194 15.6623 15.8591 18.7931 15.8591C22.3413 15.8591 25.4543 15.5635 27.6621 14.9401C28.7685 14.6277 29.6061 14.2442 30.1563 13.8071C30.6946 13.3795 30.9253 12.931 30.9253 12.4494C30.9253 12.0175 30.7061 11.5882 30.1524 11.1617C29.59 10.7284 28.729 10.339 27.5798 10.0166C25.2871 9.37342 22.0064 9.0397 18.1271 9.0397C14.9929 9.0397 12.8812 9.48053 11.574 10.1414ZM11.0731 9.15064C12.6046 8.37644 14.9176 7.92957 18.1271 7.92957C22.0504 7.92957 25.4463 8.26509 27.8796 8.94773C29.0934 9.28824 30.1077 9.72589 30.8299 10.2822C31.5608 10.8453 32.0354 11.5682 32.0354 12.4494C32.0354 13.3578 31.5724 14.0999 30.8468 14.6763C30.1333 15.2432 29.1371 15.6772 27.9638 16.0085C25.6122 16.6725 22.3815 16.9692 18.7931 16.9692C15.5803 16.9692 13.1135 16.5212 11.4278 15.7585C9.75135 15 8.72266 13.86 8.72266 12.4494C8.72266 11.0941 9.51752 9.93702 11.0731 9.15064Z" fill="black"/>
<path fill-rule="evenodd" clip-rule="evenodd" d="M12.9134 2.17816C11.9364 2.82948 11.4187 3.66832 11.4187 4.51982C11.4187 5.37133 11.9364 6.21017 12.9134 6.86149C13.8865 7.51022 15.2628 7.92952 16.8108 7.92952C18.3588 7.92952 19.7351 7.51022 20.7082 6.86149C21.6851 6.21017 22.2029 5.37133 22.2029 4.51982C22.2029 3.66832 21.6851 2.82948 20.7082 2.17816C19.7351 1.52942 18.3588 1.11013 16.8108 1.11013C15.2628 1.11013 13.8865 1.52942 12.9134 2.17816ZM12.2976 1.25447C13.477 0.468249 15.0742 0 16.8108 0C18.5474 0 20.1446 0.468249 21.324 1.25447C22.4994 2.03811 23.313 3.18165 23.313 4.51982C23.313 5.85799 22.4994 7.00154 21.324 7.78517C20.1446 8.5714 18.5474 9.03965 16.8108 9.03965C15.0742 9.03965 13.477 8.5714 12.2976 7.78517C11.1222 7.00154 10.3086 5.85799 10.3086 4.51982C10.3086 3.18165 11.1222 2.03811 12.2976 1.25447Z" fill="black"/>
</svg>
